<svg width="80" height="80" viewBox="0 0 80 80" fill="none" xmlns="http://www.w3.org/2000/svg">
<path d="M43.036 62.3C43.0358 62.694 42.9579 63.084 42.8069 63.4479C42.6559 63.8118 42.4347 64.1423 42.1559 64.4207C41.8772 64.6991 41.5463 64.9199 41.1822 65.0704C40.8182 65.2209 40.428 65.2983 40.034 65.298C39.6401 65.2977 39.25 65.2199 38.8861 65.0689C38.5223 64.9179 38.1917 64.6967 37.9133 64.4179C37.6349 64.1391 37.4141 63.8083 37.2636 63.4442C37.1131 63.0801 37.0358 62.69 37.036 62.296L43.036 62.3ZM40.038 57.778H43.038V57.78L40.038 57.778ZM37.038 37.704C37.038 36.9084 37.3541 36.1453 37.9167 35.5827C38.4793 35.0201 39.2424 34.704 40.038 34.704C40.8337 34.704 41.5967 35.0201 42.1593 35.5827C42.722 36.1453 43.038 36.9084 43.038 37.704H37.038ZM43.038 37.667C43.038 38.4627 42.722 39.2257 42.1593 39.7883C41.5967 40.3509 40.8337 40.667 40.038 40.667C39.2424 40.667 38.4793 40.3509 37.9167 39.7883C37.3541 39.2257 37.038 38.4627 37.038 37.667H43.038ZM37.038 16C37.038 15.2044 37.3541 14.4413 37.9167 13.8787C38.4793 13.3161 39.2424 13 40.038 13C40.8337 13 41.5967 13.3161 42.1593 13.8787C42.722 14.4413 43.038 15.2044 43.038 16H37.038ZM37.036 62.296V62.221L43.036 62.224V62.3L37.036 62.296ZM37.036 62.221V61.331L43.036 61.336V62.224L37.036 62.221ZM37.036 61.331V60.443L43.036 60.447V61.336L37.036 61.331ZM37.036 60.443L37.037 59.553L43.037 59.558L43.036 60.447L37.036 60.443ZM37.037 59.553L37.038 58.665L43.038 58.669L43.037 59.558L37.037 59.553ZM37.038 58.665V57.776L43.038 57.78V58.669L37.038 58.665ZM37.038 57.778V37.704H43.038V57.778H37.038ZM37.038 37.667V16H43.038V37.667H37.038Z" fill="#B0D850"/>
<path d="M64.89 40.89L43.713 62.066C43.2255 62.5536 42.6467 62.9403 42.0097 63.2042C41.3727 63.4681 40.69 63.6039 40.0005 63.6039C39.311 63.6039 38.6283 63.4681 37.9913 63.2042C37.3543 62.9403 36.7755 62.5536 36.288 62.066L15.112 40.889" stroke="#B0D850" stroke-width="6" stroke-linecap="round" stroke-linejoin="round"/>
</svg>
